<?xml version="1.0" encoding="utf-8"?>
<!-- Generator: Adobe Illustrator 19.2.1, SVG Export Plug-In . SVG Version: 6.00 Build 0)  -->
<svg version="1.1" id="my_x5F_vector_x5F_mask_x5F_shape_1_"
	 xmlns="http://www.w3.org/2000/svg" xmlns:xlink="http://www.w3.org/1999/xlink" x="0px" y="0px" viewBox="0 0 477.5 424.9"
	 style="enable-background:new 0 0 477.5 424.9;" xml:space="preserve">
<style type="text/css">
	.st0{fill:#f93522;}
</style>
<path class="st0" d="M383.1,225.4c73.5-45.5,94-69.6,94-124.4C477,26.3,412.5,0,352.1,0C312,0,268.9,12.4,244.6,46.3
	c-0.1,0.1-0.1,0.2-0.2,0.3C220,12.7,177,0.3,136.9,0.3C76.5,0.3,12,26.6,12,101.4c0,56.2,21.5,80.1,99.9,128
	c65.2,37.7,98.7,49.6,98.7,87.3c0,23.9-20.9,44.3-67,44.3c-61.6,0-77.7-28.7-77.7-71.8v-15L0,286.2v23.3
	c0,90.3,81.3,115.4,141.7,115.4c60.4,0,134.5-21.5,134.5-109.4c0-58.6-25.1-87.3-81.9-124.4c-77.1-46-116.6-61-116.6-90.9
	c0-22.1,18.5-35.9,55-35.9c3.8,0,7.4,0.2,10.8,0.5c35.6,2.9,64.2,25.2,81.8,43.2c0.4,0.4,0.9,0.9,1.3,1.3c0.2,0.2,0.4,0.5,0.7,0.7
	c0.5,0.6,1.1,1.1,1.6,1.7c0.2,0.2,0.4,0.5,0.7,0.7c0.4,0.5,0.9,1,1.3,1.4c0.2,0.2,0.4,0.4,0.6,0.7c0.4,0.5,0.8,0.9,1.2,1.4
	c0.2,0.2,0.4,0.4,0.5,0.6c0.5,0.5,0.9,1,1.3,1.6c0.2,0.2,0.3,0.4,0.5,0.5c0.3,0.4,0.7,0.8,1,1.2c0.1,0.2,0.3,0.3,0.4,0.5
	c0.4,0.5,0.8,1,1.2,1.4c0.1,0.2,0.3,0.3,0.4,0.5c0.3,0.4,0.7,0.8,1,1.2c0.1,0.1,0.2,0.3,0.3,0.4c0.3,0.4,0.6,0.7,0.8,1.1
	c0.1,0.1,0.2,0.3,0.3,0.4c0.3,0.4,0.6,0.8,0.8,1.1c0.1,0.1,0.2,0.2,0.2,0.3c0.2,0.3,0.4,0.6,0.6,0.8c0.1,0.1,0.1,0.2,0.2,0.2
	c0.2,0.3,0.4,0.6,0.6,0.9c0.1,0.1,0.1,0.2,0.2,0.2c0.2,0.3,0.4,0.5,0.5,0.7c0,0,0.1,0.1,0.1,0.1c0.1,0.2,0.3,0.4,0.4,0.5
	c0,0,0.1,0.1,0.1,0.1c0.1,0.2,0.2,0.3,0.3,0.4c0,0,0,0.1,0.1,0.1c0.1,0.1,0.1,0.2,0.1,0.2c0,0,0,0.1,0,0.1l-0.2,0.2l0.4-0.1
	l-0.2-0.2c0,0,0,0,0,0c0,0,0,0,0,0c0,0,0-0.1,0.1-0.1c0,0,0,0,0.1-0.1c0,0,0-0.1,0.1-0.1c0,0,0-0.1,0.1-0.1c0,0,0-0.1,0.1-0.1
	c0,0,0.1-0.1,0.1-0.2c0,0,0.1-0.1,0.1-0.1c0-0.1,0.1-0.1,0.1-0.2c0,0,0.1-0.1,0.1-0.1c0.1-0.1,0.1-0.2,0.2-0.2c0,0,0.1-0.1,0.1-0.2
	c0.1-0.1,0.1-0.2,0.2-0.3c0,0,0.1-0.1,0.1-0.1c0.1-0.1,0.2-0.2,0.3-0.4c0,0,0,0,0,0c0.3-0.4,0.7-0.9,1.1-1.5c0-0.1,0.1-0.1,0.1-0.2
	c0.1-0.1,0.2-0.3,0.3-0.4c0.1-0.1,0.1-0.2,0.2-0.3c0.1-0.1,0.2-0.3,0.3-0.4c0.1-0.1,0.2-0.2,0.2-0.3c0.1-0.1,0.2-0.3,0.3-0.4
	c0.1-0.1,0.2-0.2,0.3-0.3c0.1-0.2,0.2-0.3,0.4-0.5c0.1-0.1,0.2-0.2,0.3-0.4c0.1-0.2,0.2-0.3,0.4-0.5c0.1-0.1,0.2-0.3,0.3-0.4
	c0.1-0.2,0.3-0.3,0.4-0.5c0.1-0.1,0.2-0.3,0.4-0.4c0.1-0.2,0.3-0.3,0.4-0.5c0.2-0.3,0.4-0.5,0.7-0.8c0.1-0.1,0.2-0.2,0.3-0.4
	c0.2-0.2,0.4-0.5,0.6-0.7c0.1-0.1,0.2-0.2,0.3-0.4c0.2-0.2,0.4-0.4,0.6-0.7c0.1-0.1,0.2-0.3,0.3-0.4c0.2-0.2,0.4-0.5,0.6-0.7
	c0.1-0.1,0.2-0.2,0.3-0.4c0.2-0.2,0.4-0.5,0.6-0.7c0.1-0.1,0.2-0.2,0.3-0.4c0.2-0.3,0.5-0.5,0.7-0.8c0.1-0.1,0.2-0.2,0.3-0.3
	c0.3-0.3,0.5-0.6,0.8-0.9c0.1-0.1,0.2-0.2,0.2-0.3c0.3-0.4,0.7-0.7,1-1.1c0,0,0.1-0.1,0.1-0.1c14.9-16.2,40.2-38.4,72.4-45.8
	c7-1.9,15-2.8,24.3-2.8c36.5,0,55,13.8,55,35.9c0,29.9-39.5,44.8-116.6,90.9c-15.3,10-28.4,19.4-39.2,29
	c18.9,19.2,29.4,39.8,32.5,67.7c7.2-9.5,18.7-17.8,34.2-27.1l79.3,165.2h76.5L383.1,225.4z"/>
</svg>
